<svg width="1351" height="574" viewBox="0 0 1351 574" fill="none" xmlns="http://www.w3.org/2000/svg">
<rect x="233" y="123" width="328" height="328" rx="90" fill="#323232"/>
<path fill-rule="evenodd" clip-rule="evenodd" d="M397.505 176.771L397.505 287.626L342.077 232.198L342.077 343.054L397.505 287.626L397.505 287.626L342.077 343.054L397.505 398.482L397.505 287.626L452.933 343.054L452.933 232.198L452.933 232.198L397.505 176.771Z" fill="#FFB200"/>
<path d="M643.92 267V183H659.76V252.6H698.16V267H643.92ZM709.439 267V207.48H724.559V267H709.439ZM716.999 200.52C714.279 200.52 711.959 199.64 710.039 197.88C708.199 196.12 707.279 193.8 707.279 190.92C707.279 188.04 708.199 185.72 710.039 183.96C711.959 182.2 714.279 181.32 716.999 181.32C719.799 181.32 722.119 182.2 723.959 183.96C725.799 185.72 726.719 188.04 726.719 190.92C726.719 193.8 725.799 196.12 723.959 197.88C722.119 199.64 719.799 200.52 716.999 200.52ZM741.314 267V207.48H756.194V215.28H758.354C759.314 213.2 761.114 211.24 763.754 209.4C766.394 207.48 770.394 206.52 775.754 206.52C780.394 206.52 784.434 207.6 787.874 209.76C791.394 211.84 794.114 214.76 796.034 218.52C797.954 222.2 798.914 226.52 798.914 231.48V267H783.794V232.68C783.794 228.2 782.674 224.84 780.434 222.6C778.274 220.36 775.154 219.24 771.074 219.24C766.434 219.24 762.834 220.8 760.274 223.92C757.714 226.96 756.434 231.24 756.434 236.76V267H741.314ZM815.259 267V183H830.379V229.44H832.539L852.219 207.48H871.899L844.419 236.28L872.859 267H853.419L832.539 243.36H830.379V267H815.259ZM882.514 267V183H898.354V217.68H929.554V183H945.394V267H929.554V232.08H898.354V267H882.514ZM984.424 267.96C979.784 267.96 975.704 266.92 972.184 264.84C968.744 262.68 966.064 259.72 964.144 255.96C962.224 252.2 961.264 247.88 961.264 243V207.48H976.384V241.8C976.384 246.28 977.464 249.64 979.624 251.88C981.864 254.12 985.024 255.24 989.104 255.24C993.744 255.24 997.344 253.72 999.904 250.68C1002.46 247.56 1003.74 243.24 1003.74 237.72V207.48H1018.86V267H1003.98V259.2H1001.82C1000.86 261.2 999.064 263.16 996.424 265.08C993.784 267 989.784 267.96 984.424 267.96ZM1071.45 268.68C1066.09 268.68 1061.97 267.76 1059.09 265.92C1056.21 264.08 1054.09 262.04 1052.73 259.8H1050.57V267H1035.69V183H1050.81V214.32H1052.97C1053.85 212.88 1055.01 211.52 1056.45 210.24C1057.97 208.96 1059.93 207.92 1062.33 207.12C1064.81 206.24 1067.85 205.8 1071.45 205.8C1076.25 205.8 1080.69 207 1084.77 209.4C1088.85 211.72 1092.13 215.16 1094.61 219.72C1097.09 224.28 1098.33 229.8 1098.33 236.28V238.2C1098.33 244.68 1097.09 250.2 1094.61 254.76C1092.13 259.32 1088.85 262.8 1084.77 265.2C1080.69 267.52 1076.25 268.68 1071.45 268.68ZM1066.89 255.48C1071.53 255.48 1075.41 254 1078.53 251.04C1081.65 248 1083.21 243.6 1083.21 237.84V236.64C1083.21 230.88 1081.65 226.52 1078.53 223.56C1075.49 220.52 1071.61 219 1066.89 219C1062.25 219 1058.37 220.52 1055.25 223.56C1052.13 226.52 1050.57 230.88 1050.57 236.64V237.84C1050.57 243.6 1052.13 248 1055.25 251.04C1058.37 254 1062.25 255.48 1066.89 255.48Z" fill="#323232"/>
<path d="M640.716 341H637.023L647.705 311.909H651.341L662.023 341H658.33L649.636 316.511H649.409L640.716 341ZM642.08 329.636H656.966V332.761H642.08V329.636ZM669.452 327.875V341H666.099V319.182H669.338V322.591H669.622C670.134 321.483 670.91 320.593 671.952 319.92C672.993 319.239 674.338 318.898 675.986 318.898C677.463 318.898 678.756 319.201 679.864 319.807C680.972 320.403 681.833 321.312 682.449 322.534C683.064 323.746 683.372 325.28 683.372 327.136V341H680.02V327.364C680.02 325.65 679.575 324.314 678.685 323.358C677.795 322.392 676.573 321.909 675.02 321.909C673.95 321.909 672.993 322.141 672.151 322.605C671.317 323.069 670.659 323.746 670.176 324.636C669.693 325.527 669.452 326.606 669.452 327.875ZM709.612 341.455C707.642 341.455 705.914 340.986 704.427 340.048C702.95 339.111 701.794 337.799 700.961 336.114C700.137 334.428 699.725 332.458 699.725 330.205C699.725 327.932 700.137 325.948 700.961 324.253C701.794 322.558 702.95 321.241 704.427 320.304C705.914 319.366 707.642 318.898 709.612 318.898C711.581 318.898 713.305 319.366 714.782 320.304C716.269 321.241 717.424 322.558 718.248 324.253C719.081 325.948 719.498 327.932 719.498 330.205C719.498 332.458 719.081 334.428 718.248 336.114C717.424 337.799 716.269 339.111 714.782 340.048C713.305 340.986 711.581 341.455 709.612 341.455ZM709.612 338.443C711.108 338.443 712.339 338.06 713.305 337.293C714.271 336.526 714.986 335.517 715.45 334.267C715.914 333.017 716.146 331.663 716.146 330.205C716.146 328.746 715.914 327.387 715.45 326.128C714.986 324.868 714.271 323.85 713.305 323.074C712.339 322.297 711.108 321.909 709.612 321.909C708.115 321.909 706.884 322.297 705.918 323.074C704.952 323.85 704.237 324.868 703.773 326.128C703.309 327.387 703.077 328.746 703.077 330.205C703.077 331.663 703.309 333.017 703.773 334.267C704.237 335.517 704.952 336.526 705.918 337.293C706.884 338.06 708.115 338.443 709.612 338.443ZM724.615 349.182V319.182H727.854V322.648H728.251C728.498 322.269 728.839 321.786 729.274 321.199C729.719 320.602 730.354 320.072 731.178 319.608C732.011 319.134 733.138 318.898 734.558 318.898C736.395 318.898 738.015 319.357 739.416 320.276C740.818 321.194 741.911 322.496 742.697 324.182C743.483 325.867 743.876 327.856 743.876 330.148C743.876 332.458 743.483 334.461 742.697 336.156C741.911 337.842 740.822 339.149 739.43 340.077C738.038 340.995 736.433 341.455 734.615 341.455C733.214 341.455 732.091 341.223 731.249 340.759C730.406 340.285 729.757 339.75 729.303 339.153C728.848 338.547 728.498 338.045 728.251 337.648H727.967V349.182H724.615ZM727.911 330.091C727.911 331.739 728.152 333.192 728.635 334.452C729.118 335.702 729.823 336.682 730.751 337.392C731.679 338.093 732.816 338.443 734.161 338.443C735.562 338.443 736.732 338.074 737.669 337.335C738.616 336.587 739.326 335.583 739.8 334.324C740.283 333.055 740.524 331.644 740.524 330.091C740.524 328.557 740.287 327.174 739.814 325.943C739.35 324.703 738.644 323.723 737.697 323.003C736.76 322.274 735.581 321.909 734.161 321.909C732.797 321.909 731.651 322.255 730.723 322.946C729.795 323.628 729.094 324.584 728.621 325.815C728.147 327.037 727.911 328.462 727.911 330.091ZM758.138 341.455C756.036 341.455 754.222 340.991 752.697 340.062C751.182 339.125 750.013 337.818 749.189 336.142C748.375 334.456 747.967 332.496 747.967 330.261C747.967 328.027 748.375 326.057 749.189 324.352C750.013 322.638 751.159 321.303 752.626 320.347C754.104 319.381 755.827 318.898 757.797 318.898C758.933 318.898 760.055 319.087 761.163 319.466C762.271 319.845 763.28 320.46 764.189 321.312C765.098 322.155 765.822 323.273 766.362 324.665C766.902 326.057 767.172 327.771 767.172 329.807V331.227H750.354V328.33H763.763C763.763 327.098 763.517 326 763.024 325.034C762.541 324.068 761.85 323.306 760.95 322.747C760.06 322.188 759.009 321.909 757.797 321.909C756.462 321.909 755.306 322.241 754.331 322.903C753.365 323.557 752.622 324.409 752.101 325.46C751.58 326.511 751.32 327.638 751.32 328.841V330.773C751.32 332.42 751.604 333.817 752.172 334.963C752.75 336.099 753.55 336.966 754.572 337.562C755.595 338.15 756.784 338.443 758.138 338.443C759.018 338.443 759.814 338.32 760.524 338.074C761.244 337.818 761.864 337.439 762.385 336.938C762.906 336.426 763.308 335.792 763.592 335.034L766.831 335.943C766.49 337.042 765.917 338.008 765.112 338.841C764.307 339.665 763.313 340.309 762.129 340.773C760.946 341.227 759.615 341.455 758.138 341.455ZM775.624 327.875V341H772.271V319.182H775.51V322.591H775.794C776.305 321.483 777.082 320.593 778.124 319.92C779.165 319.239 780.51 318.898 782.158 318.898C783.635 318.898 784.928 319.201 786.036 319.807C787.143 320.403 788.005 321.312 788.621 322.534C789.236 323.746 789.544 325.28 789.544 327.136V341H786.192V327.364C786.192 325.65 785.747 324.314 784.857 323.358C783.966 322.392 782.745 321.909 781.192 321.909C780.122 321.909 779.165 322.141 778.322 322.605C777.489 323.069 776.831 323.746 776.348 324.636C775.865 325.527 775.624 326.606 775.624 327.875ZM808.17 326.966V330.091H795.442V326.966H808.17ZM829.523 324.068L826.511 324.92C826.322 324.419 826.043 323.931 825.673 323.457C825.313 322.974 824.821 322.577 824.196 322.264C823.571 321.952 822.771 321.795 821.795 321.795C820.46 321.795 819.348 322.103 818.457 322.719C817.577 323.325 817.136 324.097 817.136 325.034C817.136 325.867 817.439 326.526 818.045 327.009C818.652 327.491 819.598 327.894 820.886 328.216L824.125 329.011C826.076 329.485 827.529 330.209 828.486 331.185C829.442 332.151 829.92 333.396 829.92 334.92C829.92 336.17 829.561 337.288 828.841 338.273C828.131 339.258 827.136 340.034 825.858 340.602C824.58 341.17 823.093 341.455 821.398 341.455C819.172 341.455 817.33 340.972 815.872 340.006C814.414 339.04 813.491 337.629 813.102 335.773L816.284 334.977C816.587 336.152 817.16 337.032 818.003 337.619C818.855 338.206 819.968 338.5 821.341 338.5C822.903 338.5 824.144 338.169 825.062 337.506C825.991 336.833 826.455 336.028 826.455 335.091C826.455 334.333 826.189 333.699 825.659 333.188C825.129 332.667 824.314 332.278 823.216 332.023L819.58 331.17C817.581 330.697 816.114 329.963 815.176 328.969C814.248 327.965 813.784 326.71 813.784 325.205C813.784 323.973 814.13 322.884 814.821 321.938C815.522 320.991 816.473 320.247 817.676 319.707C818.888 319.168 820.261 318.898 821.795 318.898C823.955 318.898 825.65 319.371 826.881 320.318C828.121 321.265 829.002 322.515 829.523 324.068ZM843.83 341.455C841.861 341.455 840.132 340.986 838.646 340.048C837.168 339.111 836.013 337.799 835.18 336.114C834.356 334.428 833.944 332.458 833.944 330.205C833.944 327.932 834.356 325.948 835.18 324.253C836.013 322.558 837.168 321.241 838.646 320.304C840.132 319.366 841.861 318.898 843.83 318.898C845.8 318.898 847.523 319.366 849.001 320.304C850.487 321.241 851.643 322.558 852.467 324.253C853.3 325.948 853.717 327.932 853.717 330.205C853.717 332.458 853.3 334.428 852.467 336.114C851.643 337.799 850.487 339.111 849.001 340.048C847.523 340.986 845.8 341.455 843.83 341.455ZM843.83 338.443C845.326 338.443 846.558 338.06 847.523 337.293C848.489 336.526 849.204 335.517 849.668 334.267C850.132 333.017 850.364 331.663 850.364 330.205C850.364 328.746 850.132 327.387 849.668 326.128C849.204 324.868 848.489 323.85 847.523 323.074C846.558 322.297 845.326 321.909 843.83 321.909C842.334 321.909 841.103 322.297 840.137 323.074C839.171 323.85 838.456 324.868 837.992 326.128C837.528 327.387 837.296 328.746 837.296 330.205C837.296 331.663 837.528 333.017 837.992 334.267C838.456 335.517 839.171 336.526 840.137 337.293C841.103 338.06 842.334 338.443 843.83 338.443ZM872.584 332.08V319.182H875.936V341H872.584V337.307H872.357C871.845 338.415 871.05 339.357 869.97 340.134C868.891 340.901 867.527 341.284 865.879 341.284C864.516 341.284 863.304 340.986 862.243 340.389C861.182 339.783 860.349 338.874 859.743 337.662C859.137 336.44 858.834 334.902 858.834 333.045V319.182H862.186V332.818C862.186 334.409 862.631 335.678 863.521 336.625C864.421 337.572 865.567 338.045 866.959 338.045C867.792 338.045 868.64 337.832 869.501 337.406C870.373 336.98 871.102 336.327 871.689 335.446C872.286 334.565 872.584 333.443 872.584 332.08ZM882.076 341V319.182H885.315V322.477H885.542C885.94 321.398 886.659 320.522 887.701 319.849C888.743 319.177 889.917 318.841 891.224 318.841C891.47 318.841 891.778 318.846 892.147 318.855C892.516 318.865 892.796 318.879 892.985 318.898V322.307C892.871 322.278 892.611 322.236 892.204 322.179C891.806 322.113 891.385 322.08 890.94 322.08C889.879 322.08 888.932 322.302 888.099 322.747C887.275 323.183 886.621 323.789 886.138 324.565C885.665 325.332 885.428 326.208 885.428 327.193V341H882.076ZM905.158 341.455C903.113 341.455 901.352 340.972 899.874 340.006C898.397 339.04 897.261 337.709 896.465 336.014C895.67 334.319 895.272 332.383 895.272 330.205C895.272 327.989 895.679 326.033 896.494 324.338C897.317 322.634 898.463 321.303 899.931 320.347C901.408 319.381 903.132 318.898 905.102 318.898C906.636 318.898 908.018 319.182 909.249 319.75C910.48 320.318 911.489 321.114 912.275 322.136C913.061 323.159 913.549 324.352 913.738 325.716H910.386C910.13 324.722 909.562 323.841 908.681 323.074C907.81 322.297 906.636 321.909 905.158 321.909C903.852 321.909 902.706 322.25 901.721 322.932C900.746 323.604 899.983 324.556 899.434 325.787C898.894 327.009 898.624 328.443 898.624 330.091C898.624 331.777 898.889 333.244 899.42 334.494C899.96 335.744 900.717 336.715 901.692 337.406C902.677 338.098 903.833 338.443 905.158 338.443C906.03 338.443 906.82 338.292 907.531 337.989C908.241 337.686 908.842 337.25 909.335 336.682C909.827 336.114 910.177 335.432 910.386 334.636H913.738C913.549 335.924 913.08 337.084 912.332 338.116C911.593 339.139 910.613 339.954 909.391 340.56C908.179 341.156 906.768 341.455 905.158 341.455ZM927.786 341.455C925.684 341.455 923.871 340.991 922.346 340.062C920.831 339.125 919.661 337.818 918.837 336.142C918.023 334.456 917.616 332.496 917.616 330.261C917.616 328.027 918.023 326.057 918.837 324.352C919.661 322.638 920.807 321.303 922.275 320.347C923.752 319.381 925.476 318.898 927.445 318.898C928.582 318.898 929.704 319.087 930.812 319.466C931.92 319.845 932.928 320.46 933.837 321.312C934.746 322.155 935.471 323.273 936.011 324.665C936.55 326.057 936.82 327.771 936.82 329.807V331.227H920.002V328.33H933.411C933.411 327.098 933.165 326 932.673 325.034C932.19 324.068 931.498 323.306 930.599 322.747C929.709 322.188 928.657 321.909 927.445 321.909C926.11 321.909 924.955 322.241 923.979 322.903C923.013 323.557 922.27 324.409 921.749 325.46C921.228 326.511 920.968 327.638 920.968 328.841V330.773C920.968 332.42 921.252 333.817 921.82 334.963C922.398 336.099 923.198 336.966 924.221 337.562C925.244 338.15 926.432 338.443 927.786 338.443C928.667 338.443 929.462 338.32 930.173 338.074C930.892 337.818 931.513 337.439 932.033 336.938C932.554 336.426 932.957 335.792 933.241 335.034L936.479 335.943C936.138 337.042 935.566 338.008 934.761 338.841C933.956 339.665 932.961 340.309 931.778 340.773C930.594 341.227 929.263 341.455 927.786 341.455ZM956.522 327.875V341H953.17V311.909H956.522V322.591H956.806C957.317 321.464 958.085 320.569 959.107 319.906C960.139 319.234 961.513 318.898 963.227 318.898C964.713 318.898 966.015 319.196 967.133 319.793C968.25 320.38 969.117 321.284 969.732 322.506C970.357 323.718 970.67 325.261 970.67 327.136V341H967.317V327.364C967.317 325.631 966.868 324.291 965.968 323.344C965.078 322.387 963.842 321.909 962.261 321.909C961.162 321.909 960.177 322.141 959.306 322.605C958.444 323.069 957.763 323.746 957.261 324.636C956.768 325.527 956.522 326.606 956.522 327.875ZM983.223 341.511C981.84 341.511 980.586 341.251 979.459 340.73C978.332 340.2 977.437 339.438 976.774 338.443C976.111 337.439 975.78 336.227 975.78 334.807C975.78 333.557 976.026 332.544 976.518 331.767C977.011 330.981 977.669 330.366 978.493 329.92C979.317 329.475 980.226 329.144 981.22 328.926C982.224 328.699 983.232 328.519 984.246 328.386C985.571 328.216 986.646 328.088 987.47 328.003C988.304 327.908 988.91 327.752 989.288 327.534C989.677 327.316 989.871 326.937 989.871 326.398V326.284C989.871 324.883 989.487 323.794 988.72 323.017C987.963 322.241 986.812 321.852 985.268 321.852C983.668 321.852 982.413 322.203 981.504 322.903C980.595 323.604 979.956 324.352 979.587 325.148L976.405 324.011C976.973 322.686 977.731 321.653 978.678 320.915C979.634 320.167 980.676 319.646 981.803 319.352C982.939 319.049 984.056 318.898 985.155 318.898C985.856 318.898 986.661 318.983 987.57 319.153C988.488 319.314 989.374 319.651 990.226 320.162C991.088 320.673 991.803 321.445 992.371 322.477C992.939 323.509 993.223 324.892 993.223 326.625V341H989.871V338.045H989.7C989.473 338.519 989.094 339.026 988.564 339.565C988.034 340.105 987.328 340.564 986.447 340.943C985.567 341.322 984.492 341.511 983.223 341.511ZM983.734 338.5C985.06 338.5 986.178 338.24 987.087 337.719C988.005 337.198 988.696 336.526 989.161 335.702C989.634 334.878 989.871 334.011 989.871 333.102V330.034C989.729 330.205 989.416 330.361 988.933 330.503C988.46 330.635 987.911 330.754 987.286 330.858C986.67 330.953 986.069 331.038 985.482 331.114C984.904 331.18 984.435 331.237 984.075 331.284C983.204 331.398 982.39 331.582 981.632 331.838C980.884 332.084 980.278 332.458 979.814 332.96C979.359 333.453 979.132 334.125 979.132 334.977C979.132 336.142 979.563 337.023 980.425 337.619C981.296 338.206 982.399 338.5 983.734 338.5ZM999.342 341V319.182H1002.58V322.477H1002.81C1003.21 321.398 1003.92 320.522 1004.97 319.849C1006.01 319.177 1007.18 318.841 1008.49 318.841C1008.74 318.841 1009.04 318.846 1009.41 318.855C1009.78 318.865 1010.06 318.879 1010.25 318.898V322.307C1010.14 322.278 1009.88 322.236 1009.47 322.179C1009.07 322.113 1008.65 322.08 1008.21 322.08C1007.14 322.08 1006.2 322.302 1005.36 322.747C1004.54 323.183 1003.89 323.789 1003.4 324.565C1002.93 325.332 1002.69 326.208 1002.69 327.193V341H999.342ZM1021.8 341.455C1019.98 341.455 1018.38 340.995 1016.98 340.077C1015.59 339.149 1014.5 337.842 1013.72 336.156C1012.93 334.461 1012.54 332.458 1012.54 330.148C1012.54 327.856 1012.93 325.867 1013.72 324.182C1014.5 322.496 1015.6 321.194 1017 320.276C1018.4 319.357 1020.02 318.898 1021.86 318.898C1023.28 318.898 1024.4 319.134 1025.22 319.608C1026.06 320.072 1026.69 320.602 1027.13 321.199C1027.57 321.786 1027.92 322.269 1028.16 322.648H1028.45V311.909H1031.8V341H1028.56V337.648H1028.16C1027.92 338.045 1027.57 338.547 1027.11 339.153C1026.66 339.75 1026.01 340.285 1025.17 340.759C1024.32 341.223 1023.2 341.455 1021.8 341.455ZM1022.25 338.443C1023.6 338.443 1024.73 338.093 1025.66 337.392C1026.59 336.682 1027.3 335.702 1027.78 334.452C1028.26 333.192 1028.5 331.739 1028.5 330.091C1028.5 328.462 1028.27 327.037 1027.79 325.815C1027.32 324.584 1026.62 323.628 1025.69 322.946C1024.76 322.255 1023.62 321.909 1022.25 321.909C1020.83 321.909 1019.65 322.274 1018.7 323.003C1017.76 323.723 1017.06 324.703 1016.59 325.943C1016.12 327.174 1015.89 328.557 1015.89 330.091C1015.89 331.644 1016.13 333.055 1016.6 334.324C1017.08 335.583 1017.79 336.587 1018.73 337.335C1019.68 338.074 1020.85 338.443 1022.25 338.443ZM1043.35 341L1036.7 319.182H1040.22L1044.94 335.886H1045.17L1049.82 319.182H1053.4L1058.01 335.83H1058.23L1062.95 319.182H1066.47L1059.82 341H1056.53L1051.76 324.239H1051.42L1046.64 341H1043.35ZM1077.32 341.511C1075.94 341.511 1074.69 341.251 1073.56 340.73C1072.43 340.2 1071.54 339.438 1070.88 338.443C1070.21 337.439 1069.88 336.227 1069.88 334.807C1069.88 333.557 1070.13 332.544 1070.62 331.767C1071.11 330.981 1071.77 330.366 1072.59 329.92C1073.42 329.475 1074.33 329.144 1075.32 328.926C1076.33 328.699 1077.33 328.519 1078.35 328.386C1079.67 328.216 1080.75 328.088 1081.57 328.003C1082.41 327.908 1083.01 327.752 1083.39 327.534C1083.78 327.316 1083.97 326.937 1083.97 326.398V326.284C1083.97 324.883 1083.59 323.794 1082.82 323.017C1082.06 322.241 1080.91 321.852 1079.37 321.852C1077.77 321.852 1076.51 322.203 1075.61 322.903C1074.7 323.604 1074.06 324.352 1073.69 325.148L1070.51 324.011C1071.07 322.686 1071.83 321.653 1072.78 320.915C1073.74 320.167 1074.78 319.646 1075.9 319.352C1077.04 319.049 1078.16 318.898 1079.26 318.898C1079.96 318.898 1080.76 318.983 1081.67 319.153C1082.59 319.314 1083.48 319.651 1084.33 320.162C1085.19 320.673 1085.9 321.445 1086.47 322.477C1087.04 323.509 1087.32 324.892 1087.32 326.625V341H1083.97V338.045H1083.8C1083.57 338.519 1083.2 339.026 1082.67 339.565C1082.14 340.105 1081.43 340.564 1080.55 340.943C1079.67 341.322 1078.59 341.511 1077.32 341.511ZM1077.84 338.5C1079.16 338.5 1080.28 338.24 1081.19 337.719C1082.11 337.198 1082.8 336.526 1083.26 335.702C1083.74 334.878 1083.97 334.011 1083.97 333.102V330.034C1083.83 330.205 1083.52 330.361 1083.03 330.503C1082.56 330.635 1082.01 330.754 1081.39 330.858C1080.77 330.953 1080.17 331.038 1079.58 331.114C1079.01 331.18 1078.54 331.237 1078.18 331.284C1077.31 331.398 1076.49 331.582 1075.73 331.838C1074.99 332.084 1074.38 332.458 1073.92 332.96C1073.46 333.453 1073.23 334.125 1073.23 334.977C1073.23 336.142 1073.66 337.023 1074.53 337.619C1075.4 338.206 1076.5 338.5 1077.84 338.5ZM1093.44 341V319.182H1096.68V322.477H1096.91C1097.31 321.398 1098.03 320.522 1099.07 319.849C1100.11 319.177 1101.28 318.841 1102.59 318.841C1102.84 318.841 1103.14 318.846 1103.51 318.855C1103.88 318.865 1104.16 318.879 1104.35 318.898V322.307C1104.24 322.278 1103.98 322.236 1103.57 322.179C1103.17 322.113 1102.75 322.08 1102.31 322.08C1101.25 322.08 1100.3 322.302 1099.47 322.747C1098.64 323.183 1097.99 323.789 1097.51 324.565C1097.03 325.332 1096.8 326.208 1096.8 327.193V341H1093.44ZM1116.81 341.455C1114.71 341.455 1112.89 340.991 1111.37 340.062C1109.85 339.125 1108.68 337.818 1107.86 336.142C1107.05 334.456 1106.64 332.496 1106.64 330.261C1106.64 328.027 1107.05 326.057 1107.86 324.352C1108.68 322.638 1109.83 321.303 1111.3 320.347C1112.78 319.381 1114.5 318.898 1116.47 318.898C1117.61 318.898 1118.73 319.087 1119.84 319.466C1120.94 319.845 1121.95 320.46 1122.86 321.312C1123.77 322.155 1124.49 323.273 1125.03 324.665C1125.57 326.057 1125.84 327.771 1125.84 329.807V331.227H1109.03V328.33H1122.43C1122.43 327.098 1122.19 326 1121.7 325.034C1121.21 324.068 1120.52 323.306 1119.62 322.747C1118.73 322.188 1117.68 321.909 1116.47 321.909C1115.13 321.909 1113.98 322.241 1113 322.903C1112.04 323.557 1111.29 324.409 1110.77 325.46C1110.25 326.511 1109.99 327.638 1109.99 328.841V330.773C1109.99 332.42 1110.28 333.817 1110.84 334.963C1111.42 336.099 1112.22 336.966 1113.24 337.562C1114.27 338.15 1115.46 338.443 1116.81 338.443C1117.69 338.443 1118.49 338.32 1119.2 338.074C1119.92 337.818 1120.54 337.439 1121.06 336.938C1121.58 336.426 1121.98 335.792 1122.26 335.034L1125.5 335.943C1125.16 337.042 1124.59 338.008 1123.78 338.841C1122.98 339.665 1121.98 340.309 1120.8 340.773C1119.62 341.227 1118.29 341.455 1116.81 341.455ZM645.489 389.511C644.106 389.511 642.851 389.251 641.724 388.73C640.598 388.2 639.703 387.438 639.04 386.443C638.377 385.439 638.045 384.227 638.045 382.807C638.045 381.557 638.292 380.544 638.784 379.767C639.277 378.981 639.935 378.366 640.759 377.92C641.582 377.475 642.491 377.144 643.486 376.926C644.49 376.699 645.498 376.519 646.511 376.386C647.837 376.216 648.912 376.088 649.736 376.003C650.569 375.908 651.175 375.752 651.554 375.534C651.942 375.316 652.136 374.937 652.136 374.398V374.284C652.136 372.883 651.753 371.794 650.986 371.017C650.228 370.241 649.078 369.852 647.534 369.852C645.934 369.852 644.679 370.203 643.77 370.903C642.861 371.604 642.222 372.352 641.852 373.148L638.67 372.011C639.239 370.686 639.996 369.653 640.943 368.915C641.9 368.167 642.941 367.646 644.068 367.352C645.205 367.049 646.322 366.898 647.42 366.898C648.121 366.898 648.926 366.983 649.835 367.153C650.754 367.314 651.639 367.651 652.491 368.162C653.353 368.673 654.068 369.445 654.636 370.477C655.205 371.509 655.489 372.892 655.489 374.625V389H652.136V386.045H651.966C651.739 386.519 651.36 387.026 650.83 387.565C650.299 388.105 649.594 388.564 648.713 388.943C647.832 389.322 646.758 389.511 645.489 389.511ZM646 386.5C647.326 386.5 648.443 386.24 649.352 385.719C650.271 385.198 650.962 384.526 651.426 383.702C651.9 382.878 652.136 382.011 652.136 381.102V378.034C651.994 378.205 651.682 378.361 651.199 378.503C650.725 378.635 650.176 378.754 649.551 378.858C648.936 378.953 648.334 379.038 647.747 379.114C647.17 379.18 646.701 379.237 646.341 379.284C645.47 379.398 644.655 379.582 643.898 379.838C643.15 380.084 642.544 380.458 642.08 380.96C641.625 381.453 641.398 382.125 641.398 382.977C641.398 384.142 641.829 385.023 642.69 385.619C643.562 386.206 644.665 386.5 646 386.5ZM675.357 380.08V367.182H678.71V389H675.357V385.307H675.13C674.619 386.415 673.823 387.357 672.744 388.134C671.664 388.901 670.3 389.284 668.653 389.284C667.289 389.284 666.077 388.986 665.016 388.389C663.956 387.783 663.122 386.874 662.516 385.662C661.91 384.44 661.607 382.902 661.607 381.045V367.182H664.96V380.818C664.96 382.409 665.405 383.678 666.295 384.625C667.194 385.572 668.34 386.045 669.732 386.045C670.566 386.045 671.413 385.832 672.275 385.406C673.146 384.98 673.875 384.327 674.462 383.446C675.059 382.565 675.357 381.443 675.357 380.08ZM694.338 367.182V370.023H683.031V367.182H694.338ZM686.327 361.955H689.679V382.75C689.679 383.697 689.816 384.407 690.091 384.881C690.375 385.345 690.735 385.657 691.17 385.818C691.616 385.97 692.084 386.045 692.577 386.045C692.946 386.045 693.249 386.027 693.486 385.989C693.723 385.941 693.912 385.903 694.054 385.875L694.736 388.886C694.509 388.972 694.191 389.057 693.784 389.142C693.377 389.237 692.861 389.284 692.236 389.284C691.289 389.284 690.361 389.08 689.452 388.673C688.552 388.266 687.804 387.646 687.207 386.812C686.62 385.979 686.327 384.928 686.327 383.659V361.955ZM708.01 389.455C706.04 389.455 704.312 388.986 702.825 388.048C701.348 387.111 700.193 385.799 699.359 384.114C698.536 382.428 698.124 380.458 698.124 378.205C698.124 375.932 698.536 373.948 699.359 372.253C700.193 370.558 701.348 369.241 702.825 368.304C704.312 367.366 706.04 366.898 708.01 366.898C709.98 366.898 711.703 367.366 713.18 368.304C714.667 369.241 715.822 370.558 716.646 372.253C717.48 373.948 717.896 375.932 717.896 378.205C717.896 380.458 717.48 382.428 716.646 384.114C715.822 385.799 714.667 387.111 713.18 388.048C711.703 388.986 709.98 389.455 708.01 389.455ZM708.01 386.443C709.506 386.443 710.737 386.06 711.703 385.293C712.669 384.526 713.384 383.517 713.848 382.267C714.312 381.017 714.544 379.663 714.544 378.205C714.544 376.746 714.312 375.387 713.848 374.128C713.384 372.868 712.669 371.85 711.703 371.074C710.737 370.297 709.506 369.909 708.01 369.909C706.514 369.909 705.283 370.297 704.317 371.074C703.351 371.85 702.636 372.868 702.172 374.128C701.708 375.387 701.476 376.746 701.476 378.205C701.476 379.663 701.708 381.017 702.172 382.267C702.636 383.517 703.351 384.526 704.317 385.293C705.283 386.06 706.514 386.443 708.01 386.443ZM723.013 389V367.182H726.252V370.591H726.536C726.991 369.426 727.725 368.522 728.738 367.878C729.751 367.224 730.968 366.898 732.388 366.898C733.828 366.898 735.026 367.224 735.982 367.878C736.948 368.522 737.701 369.426 738.241 370.591H738.468C739.027 369.464 739.865 368.569 740.982 367.906C742.1 367.234 743.44 366.898 745.002 366.898C746.953 366.898 748.549 367.509 749.789 368.73C751.03 369.942 751.65 371.831 751.65 374.398V389H748.298V374.398C748.298 372.788 747.857 371.637 746.977 370.946C746.096 370.255 745.059 369.909 743.866 369.909C742.332 369.909 741.143 370.373 740.3 371.301C739.458 372.22 739.036 373.384 739.036 374.795V389H735.627V374.057C735.627 372.816 735.225 371.817 734.42 371.06C733.615 370.293 732.578 369.909 731.309 369.909C730.438 369.909 729.623 370.141 728.866 370.605C728.118 371.069 727.512 371.713 727.048 372.537C726.593 373.351 726.366 374.294 726.366 375.364V389H723.013ZM764.2 389.511C762.817 389.511 761.562 389.251 760.435 388.73C759.308 388.2 758.414 387.438 757.751 386.443C757.088 385.439 756.756 384.227 756.756 382.807C756.756 381.557 757.003 380.544 757.495 379.767C757.987 378.981 758.646 378.366 759.469 377.92C760.293 377.475 761.202 377.144 762.197 376.926C763.201 376.699 764.209 376.519 765.222 376.386C766.548 376.216 767.623 376.088 768.447 376.003C769.28 375.908 769.886 375.752 770.265 375.534C770.653 375.316 770.847 374.937 770.847 374.398V374.284C770.847 372.883 770.464 371.794 769.697 371.017C768.939 370.241 767.789 369.852 766.245 369.852C764.645 369.852 763.39 370.203 762.481 370.903C761.572 371.604 760.933 372.352 760.563 373.148L757.381 372.011C757.95 370.686 758.707 369.653 759.654 368.915C760.611 368.167 761.652 367.646 762.779 367.352C763.915 367.049 765.033 366.898 766.131 366.898C766.832 366.898 767.637 366.983 768.546 367.153C769.465 367.314 770.35 367.651 771.202 368.162C772.064 368.673 772.779 369.445 773.347 370.477C773.915 371.509 774.2 372.892 774.2 374.625V389H770.847V386.045H770.677C770.45 386.519 770.071 387.026 769.54 387.565C769.01 388.105 768.305 388.564 767.424 388.943C766.543 389.322 765.469 389.511 764.2 389.511ZM764.711 386.5C766.037 386.5 767.154 386.24 768.063 385.719C768.982 385.198 769.673 384.526 770.137 383.702C770.611 382.878 770.847 382.011 770.847 381.102V378.034C770.705 378.205 770.393 378.361 769.91 378.503C769.436 378.635 768.887 378.754 768.262 378.858C767.647 378.953 767.045 379.038 766.458 379.114C765.88 379.18 765.412 379.237 765.052 379.284C764.181 379.398 763.366 379.582 762.609 379.838C761.861 380.084 761.254 380.458 760.79 380.96C760.336 381.453 760.109 382.125 760.109 382.977C760.109 384.142 760.54 385.023 761.401 385.619C762.272 386.206 763.376 386.5 764.711 386.5ZM789.807 367.182V370.023H778.5V367.182H789.807ZM781.795 361.955H785.148V382.75C785.148 383.697 785.285 384.407 785.56 384.881C785.844 385.345 786.204 385.657 786.639 385.818C787.084 385.97 787.553 386.045 788.045 386.045C788.415 386.045 788.718 386.027 788.955 385.989C789.191 385.941 789.381 385.903 789.523 385.875L790.205 388.886C789.977 388.972 789.66 389.057 789.253 389.142C788.846 389.237 788.33 389.284 787.705 389.284C786.758 389.284 785.83 389.08 784.92 388.673C784.021 388.266 783.273 387.646 782.676 386.812C782.089 385.979 781.795 384.928 781.795 383.659V361.955ZM794.849 389V367.182H798.202V389H794.849ZM796.554 363.545C795.901 363.545 795.337 363.323 794.864 362.878C794.4 362.433 794.168 361.898 794.168 361.273C794.168 360.648 794.4 360.113 794.864 359.668C795.337 359.223 795.901 359 796.554 359C797.207 359 797.766 359.223 798.23 359.668C798.704 360.113 798.94 360.648 798.94 361.273C798.94 361.898 798.704 362.433 798.23 362.878C797.766 363.323 797.207 363.545 796.554 363.545ZM813.205 389.455C811.236 389.455 809.507 388.986 808.021 388.048C806.543 387.111 805.388 385.799 804.555 384.114C803.731 382.428 803.319 380.458 803.319 378.205C803.319 375.932 803.731 373.948 804.555 372.253C805.388 370.558 806.543 369.241 808.021 368.304C809.507 367.366 811.236 366.898 813.205 366.898C815.175 366.898 816.898 367.366 818.376 368.304C819.862 369.241 821.018 370.558 821.842 372.253C822.675 373.948 823.092 375.932 823.092 378.205C823.092 380.458 822.675 382.428 821.842 384.114C821.018 385.799 819.862 387.111 818.376 388.048C816.898 388.986 815.175 389.455 813.205 389.455ZM813.205 386.443C814.701 386.443 815.933 386.06 816.898 385.293C817.864 384.526 818.579 383.517 819.043 382.267C819.507 381.017 819.739 379.663 819.739 378.205C819.739 376.746 819.507 375.387 819.043 374.128C818.579 372.868 817.864 371.85 816.898 371.074C815.933 370.297 814.701 369.909 813.205 369.909C811.709 369.909 810.478 370.297 809.512 371.074C808.546 371.85 807.831 372.868 807.367 374.128C806.903 375.387 806.671 376.746 806.671 378.205C806.671 379.663 806.903 381.017 807.367 382.267C807.831 383.517 808.546 384.526 809.512 385.293C810.478 386.06 811.709 386.443 813.205 386.443ZM831.561 375.875V389H828.209V367.182H831.447V370.591H831.732C832.243 369.483 833.019 368.593 834.061 367.92C835.103 367.239 836.447 366.898 838.095 366.898C839.572 366.898 840.865 367.201 841.973 367.807C843.081 368.403 843.943 369.312 844.558 370.534C845.174 371.746 845.482 373.28 845.482 375.136V389H842.129V375.364C842.129 373.65 841.684 372.314 840.794 371.358C839.904 370.392 838.682 369.909 837.129 369.909C836.059 369.909 835.103 370.141 834.26 370.605C833.427 371.069 832.768 371.746 832.286 372.636C831.803 373.527 831.561 374.606 831.561 375.875ZM862.857 397.182V367.182H866.096V370.648H866.494C866.74 370.269 867.081 369.786 867.516 369.199C867.961 368.602 868.596 368.072 869.42 367.608C870.253 367.134 871.38 366.898 872.8 366.898C874.638 366.898 876.257 367.357 877.658 368.276C879.06 369.194 880.154 370.496 880.94 372.182C881.726 373.867 882.119 375.856 882.119 378.148C882.119 380.458 881.726 382.461 880.94 384.156C880.154 385.842 879.065 387.149 877.673 388.077C876.281 388.995 874.675 389.455 872.857 389.455C871.456 389.455 870.334 389.223 869.491 388.759C868.648 388.285 867.999 387.75 867.545 387.153C867.09 386.547 866.74 386.045 866.494 385.648H866.21V397.182H862.857ZM866.153 378.091C866.153 379.739 866.394 381.192 866.877 382.452C867.36 383.702 868.066 384.682 868.994 385.392C869.922 386.093 871.058 386.443 872.403 386.443C873.804 386.443 874.974 386.074 875.911 385.335C876.858 384.587 877.568 383.583 878.042 382.324C878.525 381.055 878.766 379.644 878.766 378.091C878.766 376.557 878.53 375.174 878.056 373.943C877.592 372.703 876.887 371.723 875.94 371.003C875.002 370.274 873.823 369.909 872.403 369.909C871.039 369.909 869.893 370.255 868.965 370.946C868.037 371.628 867.336 372.584 866.863 373.815C866.389 375.037 866.153 376.462 866.153 378.091ZM890.585 359.909V389H887.232V359.909H890.585ZM903.145 389.511C901.762 389.511 900.508 389.251 899.381 388.73C898.254 388.2 897.359 387.438 896.696 386.443C896.033 385.439 895.702 384.227 895.702 382.807C895.702 381.557 895.948 380.544 896.44 379.767C896.933 378.981 897.591 378.366 898.415 377.92C899.239 377.475 900.148 377.144 901.142 376.926C902.146 376.699 903.154 376.519 904.168 376.386C905.493 376.216 906.568 376.088 907.392 376.003C908.225 375.908 908.831 375.752 909.21 375.534C909.598 375.316 909.793 374.937 909.793 374.398V374.284C909.793 372.883 909.409 371.794 908.642 371.017C907.884 370.241 906.734 369.852 905.19 369.852C903.59 369.852 902.335 370.203 901.426 370.903C900.517 371.604 899.878 372.352 899.509 373.148L896.327 372.011C896.895 370.686 897.652 369.653 898.599 368.915C899.556 368.167 900.598 367.646 901.724 367.352C902.861 367.049 903.978 366.898 905.077 366.898C905.777 366.898 906.582 366.983 907.491 367.153C908.41 367.314 909.295 367.651 910.148 368.162C911.009 368.673 911.724 369.445 912.293 370.477C912.861 371.509 913.145 372.892 913.145 374.625V389H909.793V386.045H909.622C909.395 386.519 909.016 387.026 908.486 387.565C907.955 388.105 907.25 388.564 906.369 388.943C905.489 389.322 904.414 389.511 903.145 389.511ZM903.656 386.5C904.982 386.5 906.099 386.24 907.009 385.719C907.927 385.198 908.618 384.526 909.082 383.702C909.556 382.878 909.793 382.011 909.793 381.102V378.034C909.651 378.205 909.338 378.361 908.855 378.503C908.382 378.635 907.832 378.754 907.207 378.858C906.592 378.953 905.991 379.038 905.403 379.114C904.826 379.18 904.357 379.237 903.997 379.284C903.126 379.398 902.312 379.582 901.554 379.838C900.806 380.084 900.2 380.458 899.736 380.96C899.281 381.453 899.054 382.125 899.054 382.977C899.054 384.142 899.485 385.023 900.347 385.619C901.218 386.206 902.321 386.5 903.656 386.5ZM928.752 367.182V370.023H917.445V367.182H928.752ZM920.741 361.955H924.093V382.75C924.093 383.697 924.23 384.407 924.505 384.881C924.789 385.345 925.149 385.657 925.585 385.818C926.03 385.97 926.498 386.045 926.991 386.045C927.36 386.045 927.663 386.027 927.9 385.989C928.137 385.941 928.326 385.903 928.468 385.875L929.15 388.886C928.923 388.972 928.605 389.057 928.198 389.142C927.791 389.237 927.275 389.284 926.65 389.284C925.703 389.284 924.775 389.08 923.866 388.673C922.966 388.266 922.218 387.646 921.621 386.812C921.034 385.979 920.741 384.928 920.741 383.659V361.955ZM943.511 367.182V370.023H931.749V367.182H943.511ZM935.272 389V364.17C935.272 362.92 935.566 361.879 936.153 361.045C936.74 360.212 937.502 359.587 938.44 359.17C939.377 358.754 940.367 358.545 941.408 358.545C942.232 358.545 942.905 358.612 943.425 358.744C943.946 358.877 944.335 359 944.59 359.114L943.624 362.011C943.454 361.955 943.217 361.884 942.914 361.798C942.621 361.713 942.232 361.67 941.749 361.67C940.641 361.67 939.841 361.95 939.349 362.509C938.866 363.067 938.624 363.886 938.624 364.966V389H935.272ZM956.174 389.455C954.204 389.455 952.476 388.986 950.989 388.048C949.512 387.111 948.357 385.799 947.523 384.114C946.7 382.428 946.288 380.458 946.288 378.205C946.288 375.932 946.7 373.948 947.523 372.253C948.357 370.558 949.512 369.241 950.989 368.304C952.476 367.366 954.204 366.898 956.174 366.898C958.144 366.898 959.867 367.366 961.344 368.304C962.831 369.241 963.987 370.558 964.81 372.253C965.644 373.948 966.06 375.932 966.06 378.205C966.06 380.458 965.644 382.428 964.81 384.114C963.987 385.799 962.831 387.111 961.344 388.048C959.867 388.986 958.144 389.455 956.174 389.455ZM956.174 386.443C957.67 386.443 958.901 386.06 959.867 385.293C960.833 384.526 961.548 383.517 962.012 382.267C962.476 381.017 962.708 379.663 962.708 378.205C962.708 376.746 962.476 375.387 962.012 374.128C961.548 372.868 960.833 371.85 959.867 371.074C958.901 370.297 957.67 369.909 956.174 369.909C954.678 369.909 953.447 370.297 952.481 371.074C951.515 371.85 950.8 372.868 950.336 374.128C949.872 375.387 949.64 376.746 949.64 378.205C949.64 379.663 949.872 381.017 950.336 382.267C950.8 383.517 951.515 384.526 952.481 385.293C953.447 386.06 954.678 386.443 956.174 386.443ZM971.178 389V367.182H974.416V370.477H974.643C975.041 369.398 975.761 368.522 976.803 367.849C977.844 367.177 979.018 366.841 980.325 366.841C980.571 366.841 980.879 366.846 981.249 366.855C981.618 366.865 981.897 366.879 982.087 366.898V370.307C981.973 370.278 981.713 370.236 981.305 370.179C980.908 370.113 980.486 370.08 980.041 370.08C978.981 370.08 978.034 370.302 977.2 370.747C976.376 371.183 975.723 371.789 975.24 372.565C974.767 373.332 974.53 374.208 974.53 375.193V389H971.178ZM986.06 389V367.182H989.299V370.591H989.583C990.038 369.426 990.772 368.522 991.785 367.878C992.798 367.224 994.015 366.898 995.435 366.898C996.875 366.898 998.073 367.224 999.029 367.878C999.995 368.522 1000.75 369.426 1001.29 370.591H1001.51C1002.07 369.464 1002.91 368.569 1004.03 367.906C1005.15 367.234 1006.49 366.898 1008.05 366.898C1010 366.898 1011.6 367.509 1012.84 368.73C1014.08 369.942 1014.7 371.831 1014.7 374.398V389H1011.34V374.398C1011.34 372.788 1010.9 371.637 1010.02 370.946C1009.14 370.255 1008.11 369.909 1006.91 369.909C1005.38 369.909 1004.19 370.373 1003.35 371.301C1002.5 372.22 1002.08 373.384 1002.08 374.795V389H998.674V374.057C998.674 372.816 998.272 371.817 997.467 371.06C996.662 370.293 995.625 369.909 994.356 369.909C993.485 369.909 992.67 370.141 991.913 370.605C991.165 371.069 990.558 371.713 990.094 372.537C989.64 373.351 989.413 374.294 989.413 375.364V389H986.06Z" fill="#323232"/>
</svg>
